<svg xmlns="http://www.w3.org/2000/svg" viewBox="0 0 354.58 192.71"><defs><style>.cls-1{fill:#fa1f6f;}</style></defs><g id="Capa_1" data-name="Capa 1"><path class="cls-1" d="M244.47,117.66,224.7,185.29a10,10,0,0,1-9.55,7.15h-8.72a9.94,9.94,0,0,1-9.62-7.43l-11.35-43.48a2.76,2.76,0,0,0-5.34,0L168.78,185a9.94,9.94,0,0,1-9.63,7.43h-8.88a10,10,0,0,1-9.55-7.14l-19.89-67.63a9.94,9.94,0,0,1,9.54-12.75h1.24a9.94,9.94,0,0,1,9.68,7.7l11.12,47.85a2.76,2.76,0,0,0,5.36,0l12.08-48.07a9.94,9.94,0,0,1,9.64-7.52h7.84a9.94,9.94,0,0,1,9.65,7.56l11.81,47.78a2.76,2.76,0,0,0,5.36,0l11.09-47.62a10,10,0,0,1,9.69-7.69h0A9.94,9.94,0,0,1,244.47,117.66Z"/><path class="cls-1" d="M95.79,162.78h-60L29.11,183a13.84,13.84,0,0,1-13,9.69H13.81c-9.55,0-16.21-9.88-13-19.26L45,45a13.83,13.83,0,0,1,13.13-9.53l22,.24a13.9,13.9,0,0,1,13,10.07l38.38,127.68c2.81,9.28-3.46,19.24-12.78,19.24h-3.27a13.85,13.85,0,0,1-13-9.69Zm-9.47-29-17.91-54a2.72,2.72,0,0,0-5.21,0l-17.91,54a2.87,2.87,0,0,0,2.6,3.83H83.72A2.87,2.87,0,0,0,86.32,133.74Z"/><path class="cls-1" d="M324.7,80.1a52.68,52.68,0,0,1,22.09,21q7.79,13.61,7.79,31.59t-7.79,31.41a52.93,52.93,0,0,1-22.09,20.81q-14.29,7.35-33.13,7.36H262.3a12.5,12.5,0,0,1-12.5-12.5V85.24a12.5,12.5,0,0,1,12.5-12.5h29.27Q310.41,72.74,324.7,80.1Zm-4.88,81.49q10.28-10.28,10.27-28.93t-10.27-29.19q-10.27-10.53-29.1-10.53h-4.45a12.5,12.5,0,0,0-12.5,12.5v53.92a12.5,12.5,0,0,0,12.5,12.5h4.45Q309.54,171.86,319.82,161.59Z"/></g><g id="Capa_2" data-name="Capa 2"><path class="cls-1" d="M256.33,62.8a4.15,4.15,0,0,1-.72,5.67L221,96.64a4.14,4.14,0,0,1-2.63.93l-72.91-.31a4.19,4.19,0,0,1-2.72-1L110.51,67.79a4.13,4.13,0,0,1-.64-5.5l33.31-47a4.13,4.13,0,0,1,3.4-1.74l71.68.31a4.14,4.14,0,0,1,3.32,1.68Zm-38-9.11a3,3,0,0,0,0-2.94l-3.73-6.45a3,3,0,0,0-2.64-1.49l-7.16.09a3,3,0,0,0-2.59,1.57L198.61,51a3,3,0,0,0,0,2.94l3.73,6.46A3,3,0,0,0,205,61.91l7.15-.1a3,3,0,0,0,2.6-1.56Zm-52.9.24a3,3,0,0,0,0-2.94l-3.73-6.45A3,3,0,0,0,159,43l-7.15.1a3,3,0,0,0-2.59,1.56l-3.57,6.56a3,3,0,0,0,0,2.94l3.73,6.45a3,3,0,0,0,2.64,1.5l7.16-.1a3,3,0,0,0,2.59-1.56Z"/><polygon class="cls-1" points="110.35 52.54 116.19 49.84 111.98 55.72 110.35 52.54"/><polygon class="cls-1" points="104.83 50.14 109.82 54.42 107.02 47.22 104.83 50.14"/><polygon class="cls-1" points="107.5 46.48 109.82 51.56 115.61 48.8 107.5 46.48"/><polygon class="cls-1" points="99.14 44.97 103.94 49.27 105.88 46.02 99.14 44.97"/><polygon class="cls-1" points="79.48 27.96 93 23.48 99.86 30.27 79.48 27.96"/><polygon class="cls-1" points="94.48 23.15 101.92 30.2 105.91 18.97 94.48 23.15"/><polygon class="cls-1" points="107.77 18.39 103.85 28.87 117.76 21.08 112.49 16.36 107.77 18.39"/><polygon class="cls-1" points="120.17 23.04 120.83 31.92 128.38 28.89 120.17 23.04"/><polygon class="cls-1" points="118.88 22.67 109.92 36.48 119.41 42.99 118.88 22.67"/><polygon class="cls-1" points="103.08 31.16 117.14 23.44 108.92 35.36 103.08 31.16"/><polygon class="cls-1" points="120.46 33.21 120.7 43.24 129.73 30.04 120.46 33.21"/><polygon class="cls-1" points="88.62 15.3 104.47 7.5 110.54 13.91 88.62 15.3"/><polyline class="cls-1" points="111.18 13.07 118.38 1.15 105.83 7.08"/><polygon class="cls-1" points="113.8 14.39 129.42 7.96 120.45 19.49 113.8 14.39"/><polygon class="cls-1" points="121.6 19.82 131.1 8.44 130.86 26.09 121.6 19.82"/><polygon class="cls-1" points="132.51 8.04 132.11 26.45 141.77 12.44 132.51 8.04"/><polygon class="cls-1" points="120.33 0.04 113.52 13.14 130.03 5.8 120.33 0.04"/><polygon class="cls-1" points="255.1 52.43 249.25 49.77 253.5 55.62 255.1 52.43"/><polygon class="cls-1" points="260.61 49.99 255.66 54.31 258.4 47.09 260.61 49.99"/><polygon class="cls-1" points="257.92 46.35 255.64 51.45 249.83 48.72 257.92 46.35"/><polygon class="cls-1" points="266.27 44.79 261.49 49.11 259.54 45.88 266.27 44.79"/><polygon class="cls-1" points="285.82 27.65 272.27 23.25 265.45 30.09 285.82 27.65"/><polygon class="cls-1" points="270.78 22.93 263.39 30.03 259.33 18.83 270.78 22.93"/><polygon class="cls-1" points="257.46 18.26 261.45 28.72 247.49 21.02 252.73 16.26 257.46 18.26"/><polygon class="cls-1" points="245.09 23 244.49 31.88 236.93 28.9 245.09 23"/><polygon class="cls-1" points="246.38 22.62 255.43 36.37 245.98 42.94 246.38 22.62"/><polygon class="cls-1" points="262.23 31 248.12 23.38 256.42 35.24 262.23 31"/><polygon class="cls-1" points="244.87 33.17 244.7 43.2 235.58 30.06 244.87 33.17"/><polygon class="cls-1" points="276.59 15.04 260.68 7.35 254.66 13.8 276.59 15.04"/><polyline class="cls-1" points="254.01 12.97 246.74 1.09 259.33 6.94"/><polygon class="cls-1" points="251.4 14.3 235.75 7.97 244.79 19.45 251.4 14.3"/><polygon class="cls-1" points="243.64 19.78 234.07 8.46 234.43 26.12 243.64 19.78"/><polygon class="cls-1" points="232.66 8.07 233.17 26.48 223.42 12.54 232.66 8.07"/><polygon class="cls-1" points="244.78 0 251.68 13.05 235.12 5.82 244.78 0"/></g></svg>